<svg width="12" height="10" viewBox="0 0 12 10" fill="none" xmlns="http://www.w3.org/2000/svg">
<path fill-rule="evenodd" clip-rule="evenodd" d="M0 4.8C5.92734e-09 4.30294 0.402944 3.9 0.9 3.9H8.8655L6.2762 1.54875C5.91791 1.20424 5.90674 0.634498 6.25125 0.276203C6.59576 -0.0820911 7.1655 -0.0932628 7.5238 0.251251L11.7238 4.15125C11.9003 4.32093 12 4.55519 12 4.8C12 5.04482 11.9003 5.27907 11.7238 5.44875L7.5238 9.34875C7.1655 9.69326 6.59576 9.68209 6.25125 9.3238C5.90674 8.9655 5.91791 8.39577 6.2762 8.05125L8.8655 5.7H0.9C0.402944 5.7 -5.92734e-09 5.29706 0 4.8Z" fill="#333333"/>
</svg>
