<svg width="12" height="10" viewBox="0 0 12 10" fill="none" xmlns="http://www.w3.org/2000/svg">
<path fill-rule="evenodd" clip-rule="evenodd" d="M12 4.8C12 5.29706 11.5971 5.7 11.1 5.7H3.1345L5.7238 8.05125C6.08209 8.39577 6.09326 8.9655 5.74875 9.3238C5.40424 9.68209 4.8345 9.69326 4.4762 9.34875L0.276202 5.44875C0.0997318 5.27907 -1.07012e-08 5.04482 0 4.8C1.07012e-08 4.55519 0.0997319 4.32093 0.276202 4.15125L4.4762 0.251251C4.8345 -0.0932628 5.40424 -0.0820913 5.74875 0.276203C6.09326 0.634498 6.08209 1.20424 5.7238 1.54875L3.1345 3.9L11.1 3.9C11.5971 3.9 12 4.30295 12 4.8Z" fill="#333333"/>
</svg>
