<svg width="24" height="24" viewBox="0 0 24 24" fill="none" xmlns="http://www.w3.org/2000/svg">
<path d="M4.5758 16.5964L4.83646 17.5839C5.16662 18.8678 5.88776 19.5262 7.32134 19.5262H16.6787C18.121 19.5262 18.8335 18.8843 19.1723 17.5839L19.433 16.5964H4.5758ZM4.28909 15.4688H19.7283L21.3617 9.13186L20.6493 8.74506L16.644 11.5103C16.3485 11.7078 16.1487 11.6337 15.9836 11.4115L12.2129 6.01274L11.7959 5.99628L7.99034 11.4362C7.84264 11.6502 7.66887 11.7161 7.37347 11.5185L3.44632 8.80266L2.61223 9.00841L4.28909 15.4688ZM2.9337 10.7778C4.08057 10.7778 5.00153 9.89724 5.00153 8.80266C5.00153 7.73278 4.08057 6.84395 2.9337 6.84395C1.78684 6.84395 0.857178 7.72455 0.857178 8.80266C0.857178 9.89724 1.79552 10.7778 2.9337 10.7778ZM12.0044 7.35421C13.1425 7.35421 14.0722 6.47361 14.0722 5.38727C14.0722 4.31738 13.1425 3.42856 12.0044 3.42856C10.8488 3.42856 9.92787 4.30916 9.92787 5.38727C9.92787 6.47361 10.8575 7.35421 12.0044 7.35421ZM21.0664 10.7778C22.2046 10.7778 23.1429 9.89724 23.1429 8.80266C23.1429 7.72455 22.2132 6.84395 21.0664 6.84395C19.9282 6.84395 18.9986 7.73278 18.9986 8.80266C18.9986 9.89724 19.9282 10.7778 21.0664 10.7778Z" fill="#262626"/>
</svg>
