<svg width="34" height="34" viewBox="0 0 34 34" fill="none" xmlns="http://www.w3.org/2000/svg">
<path fill-rule="evenodd" clip-rule="evenodd" d="M3 18.9375C3 12.4827 8.23267 7.25 14.6875 7.25C15.2743 7.25 15.75 7.7257 15.75 8.3125V17.875H25.3125C25.8993 17.875 26.375 18.3507 26.375 18.9375C26.375 25.3923 21.1423 30.625 14.6875 30.625C8.23267 30.625 3 25.3923 3 18.9375Z" fill="#262626"/>
<path fill-rule="evenodd" clip-rule="evenodd" d="M17.875 4.0625C17.875 3.4757 18.3507 3 18.9375 3C25.3923 3 30.625 8.23267 30.625 14.6875C30.625 15.2743 30.1493 15.75 29.5625 15.75H18.9375C18.3507 15.75 17.875 15.2743 17.875 14.6875V4.0625Z" fill="#262626"/>
</svg>
