<svg width="16" height="15" viewBox="0 0 16 15" fill="none" xmlns="http://www.w3.org/2000/svg">
<path d="M6.02612 0.988431C6.79881 -0.329535 8.70412 -0.329535 9.47681 0.988431L10.5537 2.82533C10.8357 3.3063 11.3057 3.64773 11.8502 3.76728L13.93 4.22387C15.4222 4.55146 16.011 6.36352 14.9963 7.50567L13.5821 9.09752C13.2118 9.51432 13.0323 10.0668 13.0869 10.6216L13.2954 12.7407C13.4449 14.2611 11.9035 15.3811 10.5037 14.769L8.55274 13.9159C8.04191 13.6925 7.46102 13.6925 6.95019 13.9159L4.99924 14.769C3.59944 15.3811 2.05801 14.2611 2.20757 12.7407L2.41602 10.6216C2.4706 10.0668 2.2911 9.51432 1.92081 9.09752L0.506602 7.50567C-0.508084 6.36352 0.0806894 4.55146 1.57292 4.22387L3.6527 3.76728C4.19727 3.64773 4.66721 3.3063 4.94919 2.82533L6.02612 0.988431Z" fill="#FF8D4D"/>
</svg>
